<?xml version="1.0" standalone="no"?>
<!DOCTYPE svg PUBLIC "-//W3C//DTD SVG 20010904//EN"
 "http://www.w3.org/TR/2001/REC-SVG-20010904/DTD/svg10.dtd">
<svg version="1.0" xmlns="http://www.w3.org/2000/svg"
 width="348.000000pt" height="348.000000pt" viewBox="0 0 348.000000 348.000000"
 preserveAspectRatio="xMidYMid meet">
<metadata>
Created by potrace 1.10, written by Peter Selinger 2001-2011
</metadata>
<g transform="translate(0.000000,348.000000) scale(0.100000,-0.100000)"
fill="#0053a1" stroke="none">
<path d="M2608 2573 c2 -115 7 -221 12 -236 13 -40 -18 -50 -85 -28 -94 30
-313 14 -395 -29 -14 -7 -32 -17 -40 -22 -8 -4 -24 -12 -35 -17 -22 -10 -125
-103 -125 -114 0 -3 -13 -26 -30 -50 -16 -25 -30 -51 -30 -59 0 -8 -7 -23 -15
-34 -8 -10 -15 -32 -15 -49 0 -16 -7 -41 -15 -55 -21 -37 -21 -343 0 -393 8
-20 15 -49 15 -64 0 -15 7 -37 15 -47 8 -11 15 -30 15 -42 0 -12 7 -27 15 -34
8 -7 15 -18 15 -24 1 -14 58 -76 101 -109 79 -59 227 -85 306 -52 19 8 43 15
53 15 10 0 23 7 30 15 7 8 19 15 27 15 8 0 42 28 76 63 56 56 69 72 96 116 5
8 16 11 24 8 14 -5 15 -22 10 -111 l-6 -106 91 0 92 0 0 825 0 825 -103 0
-103 0 4 -207z m-51 -439 c12 -8 29 -14 38 -14 14 0 16 -32 13 -292 l-3 -293
-27 -29 c-16 -16 -28 -33 -28 -39 0 -13 -149 -157 -163 -157 -6 0 -19 -8 -30
-17 -15 -14 -37 -18 -101 -18 -82 0 -83 0 -124 40 -23 21 -42 44 -42 51 0 6
-7 17 -15 24 -8 7 -15 21 -15 32 0 10 -8 31 -17 45 -15 23 -17 54 -18 227 0
175 2 204 18 226 9 13 17 33 17 43 0 19 77 127 90 127 5 0 15 6 22 13 23 21
81 46 118 51 67 8 244 -5 267 -20z"/>
<path d="M1060 2315 c-30 -8 -73 -14 -95 -15 -22 0 -50 -6 -61 -14 -11 -8 -38
-16 -60 -18 l-39 -3 -3 -89 c-2 -49 -1 -95 2 -102 4 -9 20 -5 63 15 32 16 74
34 93 41 93 33 347 35 399 2 33 -20 89 -80 95 -101 13 -45 25 -174 17 -188 -7
-14 -40 -16 -227 -18 -182 -2 -224 -5 -249 -18 -16 -9 -40 -17 -51 -17 -12 0
-27 -7 -34 -15 -7 -8 -19 -15 -26 -15 -8 0 -22 -8 -33 -19 -10 -10 -23 -20
-27 -22 -16 -7 -84 -96 -84 -110 0 -8 -7 -23 -15 -33 -21 -28 -21 -234 0 -262
8 -10 15 -26 15 -34 0 -22 89 -112 130 -132 99 -47 265 -64 320 -33 14 8 37
14 51 15 15 0 32 7 39 15 7 8 19 15 27 15 19 0 88 52 130 98 48 54 63 40 56
-52 l-6 -76 92 0 91 0 0 450 c0 479 2 451 -49 560 -19 42 -109 130 -132 130
-9 0 -22 7 -29 15 -7 8 -25 15 -40 15 -15 0 -49 7 -76 15 -61 18 -209 18 -284
0z m416 -678 c-3 -16 -6 -65 -6 -108 0 -67 -3 -81 -22 -99 -30 -27 -168 -120
-179 -120 -5 0 -22 -8 -36 -17 -39 -26 -198 -25 -239 1 -62 40 -73 63 -74 157
0 65 4 90 15 99 8 7 15 18 15 25 0 14 49 53 95 75 22 11 81 16 215 20 102 3
193 3 203 1 15 -3 18 -10 13 -34z"/>
<path d="M455 1994 c-65 -59 -88 -78 -135 -114 -25 -19 -52 -41 -61 -49 -31
-31 -68 -60 -88 -71 -27 -14 -27 -46 0 -60 20 -11 57 -40 88 -71 9 -8 36 -30
61 -49 44 -34 55 -43 136 -114 48 -42 57 -43 85 -15 28 28 16 50 -64 111 -212
163 -219 171 -175 200 13 9 34 26 48 38 14 12 67 54 118 93 50 38 92 76 92 83
0 18 -36 54 -52 54 -7 0 -31 -17 -53 -36z"/>
<path d="M2997 2012 c-31 -34 -21 -56 50 -108 38 -27 75 -56 83 -64 28 -27 95
-77 113 -83 31 -11 19 -44 -25 -70 -24 -14 -54 -36 -67 -49 -14 -12 -57 -47
-95 -76 -88 -66 -95 -77 -65 -108 12 -13 28 -24 35 -24 6 0 34 21 60 46 27 25
76 67 109 93 33 25 67 53 75 61 9 9 37 31 63 49 26 19 47 42 47 51 0 9 -21 32
-47 51 -26 18 -54 40 -63 49 -8 8 -42 36 -75 61 -33 26 -82 68 -109 93 -53 51
-65 55 -89 28z"/>
</g>
</svg>
