<?xml version="1.0" standalone="no"?>
<!DOCTYPE svg PUBLIC "-//W3C//DTD SVG 20010904//EN"
 "http://www.w3.org/TR/2001/REC-SVG-20010904/DTD/svg10.dtd">
<svg version="1.0" xmlns="http://www.w3.org/2000/svg"
 width="306.000000pt" height="306.000000pt" viewBox="0 0 306.000000 306.000000"
 preserveAspectRatio="xMidYMid meet">
<metadata>
Created by potrace 1.10, written by Peter Selinger 2001-2011
</metadata>
<g transform="translate(0.000000,306.000000) scale(0.100000,-0.100000)"
fill="#0053a1" stroke="none">
<path d="M1433 2781 c-58 -63 -75 -91 -55 -91 5 0 58 -48 118 -107 60 -60 135
-131 167 -159 66 -59 67 -73 2 -104 -46 -22 -185 -154 -209 -198 -70 -130 -85
-182 -86 -298 0 -73 4 -105 15 -120 8 -10 15 -28 15 -40 0 -22 35 -94 78 -159
50 -77 277 -285 310 -285 5 0 15 -7 22 -15 7 -8 22 -15 33 -15 11 0 29 -8 39
-17 15 -14 40 -17 136 -17 126 0 141 4 224 67 41 32 118 129 118 149 0 8 7 24
17 37 15 23 20 127 10 261 -4 56 22 46 98 -41 l69 -79 67 66 68 67 -584 584
c-321 320 -589 582 -597 582 -7 -1 -41 -32 -75 -68z m606 -738 c195 -197 196
-198 209 -258 15 -67 15 -215 1 -252 -5 -13 -9 -33 -9 -44 0 -11 -4 -25 -10
-32 -5 -7 -21 -26 -35 -44 -53 -65 -163 -94 -232 -59 -15 8 -35 18 -43 21 -38
15 -68 37 -188 139 -40 35 -152 179 -152 197 0 7 -7 21 -17 31 -13 14 -16 39
-16 115 0 95 1 100 38 160 20 34 58 81 83 103 62 54 69 60 81 60 5 0 11 7 15
15 3 8 15 15 26 15 11 0 23 7 26 15 4 8 11 15 16 15 6 0 98 -89 207 -197z"/>
<path d="M2530 2494 c-52 -7 -146 -13 -207 -13 l-113 -1 0 -65 0 -66 63 6 c34
3 109 13 165 21 57 9 110 13 118 10 16 -6 19 -67 4 -82 -5 -5 -14 -62 -20
-127 -5 -65 -11 -123 -13 -130 -1 -8 15 -13 49 -15 70 -4 77 7 81 126 5 157
14 262 24 268 5 3 9 23 9 45 0 38 -1 39 -32 38 -18 -1 -76 -7 -128 -15z"/>
<path d="M1016 1572 c-3 -6 -24 -13 -46 -17 -22 -4 -59 -18 -83 -31 -23 -13
-51 -28 -62 -33 -53 -25 -235 -225 -281 -311 -11 -19 -32 -55 -48 -78 l-27
-44 48 -52 c26 -29 58 -58 71 -64 20 -11 24 -9 32 16 6 15 14 36 19 47 5 11
12 27 15 35 4 8 15 29 26 45 11 17 23 38 28 47 22 50 179 208 205 208 7 0 22
7 33 15 11 8 41 14 72 15 44 0 62 -6 105 -35 64 -42 127 -98 127 -113 0 -6
-41 -51 -92 -99 -50 -48 -103 -101 -117 -117 -14 -16 -41 -45 -58 -65 -18 -20
-33 -41 -33 -47 0 -6 -7 -17 -15 -24 -8 -7 -15 -20 -15 -30 0 -10 -7 -23 -15
-30 -8 -7 -15 -24 -15 -39 0 -14 -6 -37 -13 -51 -22 -41 0 -170 38 -230 33
-51 108 -122 166 -155 45 -26 194 -27 233 -2 14 10 30 17 36 17 14 0 116 79
146 112 31 35 84 118 84 131 0 7 6 21 14 32 14 21 26 79 29 150 3 51 15 85 30
85 7 -1 28 -24 47 -52 19 -28 40 -53 46 -55 12 -4 134 109 134 124 0 5 -10 17
-22 27 -13 10 -156 150 -318 312 -162 161 -306 297 -320 303 -14 6 -32 15 -40
20 -13 8 -71 24 -136 38 -12 3 -24 0 -28 -5z m425 -538 c41 -41 75 -81 77 -89
2 -8 -4 -34 -12 -60 -9 -25 -16 -61 -16 -80 0 -18 -6 -46 -14 -62 -8 -15 -24
-49 -35 -75 -28 -60 -97 -128 -156 -152 -45 -18 -48 -18 -88 0 -63 26 -113 79
-132 137 -14 42 -14 57 -4 101 15 61 37 91 159 216 51 52 99 105 107 118 9 12
21 22 28 22 7 0 46 -34 86 -76z"/>
<path d="M396 598 c-4 -46 -11 -135 -16 -198 -5 -63 -12 -132 -16 -152 -5 -31
-3 -39 11 -44 10 -4 26 -2 37 5 16 10 296 35 383 34 37 -1 45 10 45 62 0 63
-9 71 -70 57 -28 -7 -77 -12 -109 -12 -31 0 -83 -7 -114 -15 -74 -19 -70 -20
-63 13 3 15 10 85 16 157 6 71 15 134 20 139 25 25 9 36 -54 36 l-63 0 -7 -82z"/>
</g>
</svg>
